<?xml version="1.0" encoding="utf-8"?>
<!-- Generator: Adobe Illustrator 21.1.0, SVG Export Plug-In . SVG Version: 6.00 Build 0)  -->
<svg version="1.1" id="Layer_1" xmlns="http://www.w3.org/2000/svg" xmlns:xlink="http://www.w3.org/1999/xlink" x="0px" y="0px"
	 viewBox="0 0 146 137" style="enable-background:new 0 0 146 137;" xml:space="preserve">
<style type="text/css">
	.st0{fill:url(#SVGID_1_);}
	.st1{fill:url(#SVGID_2_);}
	.st2{fill:#575756;}
</style>
<title>fps_color</title>
<g>
	<g>
		<linearGradient id="SVGID_1_" gradientUnits="userSpaceOnUse" x1="8.0434" y1="99.1544" x2="136.6834" y2="99.1544">
			<stop  offset="0" style="stop-color:#5BC4F1"/>
			<stop  offset="0.1279" style="stop-color:#56BBE9"/>
			<stop  offset="0.3366" style="stop-color:#47A3D3"/>
			<stop  offset="0.6" style="stop-color:#307BAE"/>
			<stop  offset="0.905" style="stop-color:#0F447D"/>
			<stop  offset="1" style="stop-color:#04326C"/>
		</linearGradient>
		<path class="st0" d="M20.2,118.7c0.1,0.1,0.1,0.2,0.1,0.3c0,0.3-0.2,0.4-0.4,0.3c-0.1-0.1-0.2-0.2-0.3-0.3
			c-0.1-0.3-0.3-0.5-0.6-0.6c-0.2-0.1-0.4-0.4-0.5-0.6c0-0.1,0-0.2,0-0.3c0,0,0.2-0.1,0.3,0C19.3,117.9,19.7,118.3,20.2,118.7z
			 M20.9,97.5c0.2,0.2,0.5,0.4,0.9,0.4c0-0.3-0.4-0.6-0.6-0.8c-1.1-1.1-1.8-2.4-2-2.7c-2-3.2-2.5-7.9-2.3-8.4c0-0.1,0-2.7-0.3-3.1
			c-0.1,0.2-0.1,0.4-0.2,0.5c-0.2,1.3-0.1,2.7,0,4.1C16.4,87.9,17.4,94.1,20.9,97.5z M9,87.5c0,0,0.1,0,0.1,0c0-1.3,0.1-3.6,0.2-4.9
			c-0.1,0-0.2,0-0.2,0c-0.2,1.2,0,3.4-0.1,4.6C8.9,87.3,8.9,87.4,9,87.5z M21.7,99.1c0,0.1,0,0.2,0,0.3c0.2,0.2,0.4,0.3,0.7,0.1
			c-0.1-0.3-0.2-0.5-0.5-0.5C21.9,99,21.7,99.1,21.7,99.1z M11.2,98.1c0.2,0.6,0.3,1.2,0.6,1.8c0.2,0.4,1,2.5,1.3,2.6
			c0.1-0.1-1.4-3.2-1.6-5.2c-0.1,0-0.2,0-0.3,0C11.2,97.6,11.2,97.9,11.2,98.1z M10,91.3c-0.3,0.9-0.3,1.5,0.4,2.6
			C10.1,92.9,10.6,92.9,10,91.3z M13.6,106c-0.1-0.1-0.1-0.2-0.2-0.3c-0.2,1.1-0.2,1.1,0.8,1.4C14,106.7,13.8,106.3,13.6,106z
			 M8.7,94.2c-0.1-0.6-0.3-3.5-0.3-4.4c0-0.2,0-0.5,0-0.7c-0.2,0.2-0.2,0.3-0.2,0.5c-0.2,1.4,0,4.2,0,4.9c0.1,1.8,1.4,7.7,1.9,9.7
			c1,3,3,6.5,3.7,7.3c0.1,0.3,0.5,0.4,0.8,0.5c-1.1-1.2-2-3.1-2-3.1C9.7,103,8.9,95.4,8.7,94.2z M86.7,127.8
			c-0.2-0.2-0.6-0.2-0.7,0.1c-0.2,0.4-0.6,0.5-0.9,0.7c-0.2,0.1-0.3,0.3-0.2,0.5c0.1,0.1,0.3,0.2,0.4,0.2c0.6-0.2,1.1-0.3,1.4-0.9
			C86.8,128.2,87,128,86.7,127.8z M83.6,129.7c0.1,0.1,0.3,0.3,0.4,0.2c0.1,0,0.2-0.3,0.3-0.4c-0.1-0.1-0.3-0.2-0.5-0.3
			C83.7,129.5,83.5,129.7,83.6,129.7z M18.8,117.5c-0.1,0-0.2,0-0.3,0c0,0.1-0.1,0.2,0,0.3c0.2,0.2,0.3,0.5,0.5,0.6
			c0.3,0.2,0.5,0.3,0.6,0.6c0,0.1,0.2,0.2,0.3,0.3c0.2,0.1,0.4,0,0.4-0.3c0-0.1,0-0.3-0.1-0.3C19.7,118.3,19.3,117.9,18.8,117.5z
			 M136.6,64.9c0,0.1,0,0.2,0,0.3c-0.1,0.3-0.2,0.6-0.3,0.9c0,0-8.6,51.4-10.2,52.2c-0.7-0.3-4-9-4-9l-0.3-0.3l-0.2-0.9l-0.2-0.3
			c-0.4,0.5-0.9,0.9-1.4,1.3c-0.1,0.1-0.2,0.1-0.4,0.2c0-0.2,0-0.3,0-0.5c-0.6,0.5-1.4,1.3-2.7,2.4c-1.7,1.8-4.2,4-7.8,6.2
			c-0.3,0.5-1.4,1.2-1.3,1.2c-0.5,0.3-0.9,0.6-1.4,0.9c-0.2,0.4-0.5,0.5-0.6,0.6c-0.4,0.4-0.9,0.7-1.4,1c-1.2,0.6-2.4,1.2-3.7,1.9
			c-0.8,0.5-1.7,1-2.5,1.4c-0.3,0.2-0.5,0.4-0.8,0.5c-2.6,1.6-5.3,2.9-8.3,3.9c-0.6,0.2-1.2,0.4-1.8,0.7c-1.2,0.9-2.5,1.5-4,1.8
			c-1.5,0.3-3,1-4.6,1.3c-6.4,1.8-12,2.4-18.5,2.9c-4.2,0.3-9.8-0.4-10.7-0.5c0.3-0.3,0.5-0.5,0.9-0.3c0.2,0.1,0.5,0.1,0.8,0.1
			c0.3,0,0.7-0.2,1-0.2c3.2,0.5,10.3-0.2,11.6-0.3c12.9-1.2,22.3-8,22.3-8s-13,6.3-23.2,7.1c-9.1,0.7-17.3-0.1-18.1-0.2
			c-0.5-0.1-2.1-0.3-4.2-0.8c-1.2-0.1-2.7-0.5-4.7-1.2c-0.3,0-0.6,0-0.8-0.3c0,0,0,0,0,0c-0.3-0.1-0.6-0.2-0.9-0.3
			c-0.1,0-0.2,0-0.3,0c-0.2-0.1-0.5-0.2-0.7-0.3c-0.2-0.1-0.3-0.2-0.5-0.3c-1.4-0.6-2.8-1.3-4.1-2.1c-1.1-0.7-2.2-1.4-3.3-2.2
			c-0.6-0.3-1.1-0.6-1.6-1.1c-0.4-0.5-0.9-0.9-1.4-1.4c-4.7-4.3-7.4-8.6-7.6-8.8c0.3-0.2,0.4,0,0.5,0.1c0.2,0.2,2.1,2.5,2.5,2.5
			c0.2-0.3,0-0.5-0.2-0.8c-0.7-0.8-0.2-0.4-0.9-1.2c-0.3-0.3-0.1-0.5,0.4,0c1.2,0.9,1.2,0.6,1.8,1.1c0.1,0.1,0.7,0.3,1.1,0.2
			c0.2-0.3-0.7-1.4-1-1.8c-0.5-0.8-1.5-1.7-1.7-1.8c-0.4-0.2,0.2-0.2,0-0.6c-0.1-0.3-1.3-1.1-1.2-1.6c0.1-0.4,0.9,0.9,1.5,1.5
			c0.2,0.2,0.5,0.2,0.8,0.5c0.3,0.2,2.2,3.2,2.6,3.6c0.5,0.4,2.9,2.9,4,3.8c0.6,0.4,3.8,3,8.8,4.8c3.8,1.4,12.8,1.9,12.8,1.9
			s-8.8-1.8-12.1-3.1c-8.9-3.6-11.7-7.6-11.9-7.9c-1.1-1.2-6.2-6.9-6.7-7.5c-0.1-0.6-0.9-1.5-0.9-1.8c0-0.3,0.4-0.2,0.5-0.1
			c0.2,0.2,0.8,1.6,1.1,1.2c0.4-0.3-0.4-0.6-0.4-0.9c-0.2-1-0.6-2.2-1.1-2.6c-0.4-0.3-0.6-0.9-1.1-1.9c-0.2-0.3-0.2-0.7-0.1-1
			c0.1,0,0.1,0,0.2-0.1c0.1,0.2,0.3,0.4,0.4,0.7c0.3,0.6,2.2,3.9,2.3,4c0.5,0.7,1,1.3,1.5,1.9c0.8,1.1,1.9,2.4,3.1,3.4
			c1.9,1.8,3.8,2.6,3.8,2.6c-4.5-3.1-6-5.4-8.5-9.8c-1-1.8-1.3-3.3-1.6-3.7c-0.3-0.7-0.5-1.4-0.7-1.8c-0.3-0.6-0.8-1.1-1.2-1.7
			c-0.3,0.2,0.1,1.3,0.2,1.6c0.1,0.3,0.3,0.5,0.2,0.9c-0.2,0.1-0.4-0.2-0.4-0.2c-0.3-0.5-0.9-2-1.1-2.4c-1.3-2.8-1.1-5-1.1-6.2
			c-0.1-1.5,0-2.6,0-3.6c0-1.5,0.6-6.6,0.8-8c0-0.2,0.1-0.3,0.2-0.6c0.3,0.7,0.2,1.2,0.2,1.8c0,0.5,0,3.4,0,4
			c-0.2,2.2-0.2,4.2,0.7,6.2c0.8,1.9,0.3,2.1,2.3,6.9c6.4,14.7,19.2,16,19.2,16s-12.6-4.5-18-15.1c-1.6-3.2-0.5-0.2-1.9-5.6
			c-0.2-0.8-0.4-1.9,0-1.9c0.3,0,0.3-0.9,0.4-1.3c0-0.3-0.1-0.8,0.1-1c0.3-0.1,0.2,1.5,0.5,2.1c0.3,0.7-0.7,0,0.8,3.5
			c0.1,0.3,2,4.9,7.3,9.1c0,0,0,0,0,0c0.2,0.1,0.4,0.2,0.6,0.3c0.7,0.5,1.4,1.1,2.2,1.5c0.5,0.3,1.1,0.4,1.6,0.7
			c1.1,0.5,2.1,1.1,3.2,1.6c0,0,0.5,0.2,1.3,0.6c0.3,0.1,0.6,0.2,0.9,0.3c0.6,0.2,1.3,0.4,1.9,0.5c0.1,0,0.2,0,0.3,0
			c0.9,0.2,1.7,0.4,2.6,0.5c0.6,0.1,2.6,0.2,3,0.4c1.9,0.2,3.9,0.3,5.9,0.3c0.4,0,0.9-0.1,1.3-0.1c0.2,0,0.4-0.1,0.5,0.1
			c0,0,0,0,0.1,0c2.4-0.1,4.7-0.4,6.9-0.8c0,0,0,0,0,0c0.9-0.2,2-0.3,2.8-0.4c0,0,0.1,0,0.1,0c0,0,0,0,0,0c0.3,0,0.7-0.1,0.8-0.1
			c-0.2,0,0.5-0.1,0.7-0.2c0.3-0.1,0.6-0.3,0.9-0.4c1.1-0.3,2.1-0.8,3.2-1.2c2.2-0.8,4.5-1.8,6.7-2.6c0,0,1-0.4,2.6-1.1
			c2.1-1,4.1-2.1,6.1-3.1c0.3-0.2,0.6-0.4,0.9-0.2c0.9-0.4,1.8-0.9,2.7-1.4c4.5-2.8,11.2-8.2,11.1-8.2c0.6-0.4,1.8-1.5,1.8-1.4
			c1.1-0.9,1.3-1.1,1.3-1.4c0-0.3-1.4-0.6-1.4-0.6S85,84,85,83.6c0-0.4,6.4-2.3,10.9-4c0,0,0,0,0,0c0.3-0.2,0.6-0.5,0.9-0.6
			c4.2-1.1,11.4-5.1,15.6-6c13.1-5.5,20.9-9.5,21.9-10c2.3-1.1,2.4,1.2,2.4,1.2L136.6,64.9C136.6,64.9,136.6,64.9,136.6,64.9z
			 M99.1,88.6c-1.4,1.2-2.7,2.4-4.1,3.5c-1.4,1.2-2.8,2.3-4.2,3.3c-1.4,1.1-2.9,2.1-4.4,3.1c-0.8,0.5-1.5,1-2.3,1.4
			c-0.8,0.5-1.6,0.9-2.4,1.3c1.7-0.6,3.3-1.4,4.9-2.3c1.6-0.9,3.1-1.9,4.5-3c1.4-1.1,2.9-2.2,4.2-3.5c0.7-0.6,1.3-1.3,2-1.9
			C97.9,89.9,98.5,89.3,99.1,88.6z"/>
		<linearGradient id="SVGID_2_" gradientUnits="userSpaceOnUse" x1="37.5965" y1="34.3235" x2="144.9962" y2="34.3235">
			<stop  offset="0" style="stop-color:#04326C"/>
			<stop  offset="0.1279" style="stop-color:#093B74"/>
			<stop  offset="0.3366" style="stop-color:#18538A"/>
			<stop  offset="0.6" style="stop-color:#2F7BAE"/>
			<stop  offset="0.905" style="stop-color:#50B2E0"/>
			<stop  offset="1" style="stop-color:#5BC4F1"/>
		</linearGradient>
		<path class="st1" d="M119.5,38.1c0.1,0.6-0.1,1.1-0.5,1.1c-0.4-5.9-2.8-10.1-3-10.5c0.5-0.1,0.8,0.1,1,0.4
			C117.3,29.8,118.9,33.4,119.5,38.1z M116.1,28.1c0-0.9-5.7-6.8-6.3-7c-0.1,0-0.2,0-0.4,0.1c0.1,0.2,4.7,4.2,5.8,6.3
			C115.4,27.9,115.7,28.1,116.1,28.1z M107,19.3c-0.1,0-0.2,0-0.4,0c0.4,0.4,1.8,1.2,2.1,1.3C108.8,20.6,107.7,19.7,107,19.3z
			 M119.2,42.3c0,0.2,0.2,0.4,0.4,0.4c0-0.9,0.2-1.9-0.2-2.6c-0.1,0-0.2,0.1-0.2,0.1C119.2,40.9,119.2,41.6,119.2,42.3z M144.8,44.9
			c-0.2,1.1-0.4,2.1-0.7,3.1c0,0,0,0,0,0c-0.1,1-0.7,2.5-1.4,3.9c-0.1,0.3-0.2,0.5-0.4,0.8l0,0c0,0,0,0,0,0c-0.4,0.8-0.7,1.4-1,1.7
			c-0.4,0.8-0.9,1.5-1.1,1.7c0,0,0,0,0,0c-0.3,0.5-0.6,0.9-0.9,1.4c-0.1,0.2-0.5,0-0.4-0.2c0.9-2,1.3-3.8,1.4-5.4
			c-0.5,1.2-1.9,2.5-2.1,3c-0.1,0.4-1,1.8-1.1,1.8c-0.7,0.5-1.6,1.6-2,2.4c-0.3,0.5-1.4,1.1-1.5,1.3c-0.2,0.3-0.5,0.5-1,0.6
			c0.2-0.9,0.7-0.9,1-1.7c0.4-0.7,0.7-1.1,1-1.9c-0.4,0-0.9,1.2-1.3,1.3c-0.4,0.2-0.7-0.1-0.8-0.1c0.2-0.5,0.3-1.1,0.6-1.5
			c0.6-0.5,1.5-4.2,1.5-4.5c0-0.8,0.7-2.9,0.9-3.5c0.1-0.4-0.4-1.8-0.2-2.8c0.1-0.3-0.3-0.6-0.5-0.6c-0.4,0.1-0.6,1.8-0.6,2.2
			c0,0,0,0.2-0.1,0.4c0.1,0.4,0.2,0.6,0.2,0.7c0,0.3-0.1,1.1-0.2,2.3c-0.2,1.2-1.1,4.2-1.9,5.2c-0.7,1-0.5,0.6-1.5,1.3
			s0.9-0.1-1.3,1c-2.2,1.1-2.5,1.5-2.6,1.8c-0.1,0.3-0.2-1.1,0.4-1.5c0-0.1,0.1-0.2,0.2-0.3l2.5-6.5c0.6-2.4,0.8-5.4,0.8-5.5
			c0.5-3.4-1.5-10.6-1.5-10.6s1.2,7.7,0.5,11.2c-0.2,2-1,6.9-3.7,11.1c-0.2,0.3-2.2,3.3-2.3,3.3c-0.9,0.4-1.9,3-2.4,2.9
			c-0.3-0.4,0-1.6,0.7-2c0.5-0.3,1.2-0.9,1.2-1.5c0-0.2,0.9-2.8,1.2-3.1c0.3-0.4,0.6-1.7,0.2-1.8c-0.3-0.1-0.6,0.1-0.7,0.4
			c-0.2,0.6-0.9,2.1-1.1,2.1c-0.6,0.3-0.9,0.8-1.3,1.2c-0.2,0.2-3.1,4.5-3.6,4.5c-0.3,0-1.9,1.2-2.2,1.5c-0.2,0.3-0.5,0.6-0.8,0.9
			c-0.1,0.1-0.6,0.1-0.9,0.2c-0.1,0-0.3,0-0.3,0.1c0,0,0.1-0.1,0.1-0.1l0,0c0,0,0.6-0.6,1.1-1.5c-0.1,0.2-0.2,0.4-0.3,0.6
			c0,0,0,0,0,0c0.1-0.1,0.1-0.2,0.2-0.3c0,0,0,0,0-0.1c0.1-0.1,0.1-0.3,0.2-0.4c0,0,0,0,0-0.1c0.1-0.1,0.1-0.3,0.2-0.4
			c0,0,0-0.1,0-0.1c0.1-0.1,0.1-0.3,0.2-0.4c0.1-0.1,0.1-0.2,0.2-0.4c0,0,0-0.1,0.1-0.1c0.3-0.6,0.6-1.2,0.8-1.8
			c1.9-4,2.6-6.2,3.6-10.5c0.3-1.4,0.8-6.9,0.8-7.6c0-1.1,0-1.7-0.1-2.1c-0.5-12.2-5.9-19.4-12.2-23.5c-0.2-0.1-0.4-0.2-0.5-0.3
			c-0.8-0.5-1.5-1-2.3-1.4c-0.5-0.3-1.1-0.4-1.7-0.6c-1.1-0.4-2.2-0.9-3.3-1.4c0,0-0.5-0.2-1.4-0.5c-1.1-0.3-2.3-0.6-3.4-0.9
			c-0.1,0-0.2,0-0.2-0.1c-2.4-0.4-4.4-0.6-5.7-0.6c-4.2,0-8.9,0.3-13.4,1.1c-0.3,0.1-0.6,0.2-0.9,0.2c-0.6,0.1-1.1,0.4-1.7,0.5
			c-1.2,0.3-2.3,0.5-3.5,0.8c0,0-0.5,0.1-1.3,0.3c-0.1,0-0.1,0-0.2,0.1c-1.1,0.4-2.1,0.8-3.2,1.2c-0.1,0-0.2,0.1-0.3,0.1
			c0,0-0.1,0-0.1,0c-3.3,1.2-6.2,2.4-9,3.7c-0.2,0.1-0.6,0.4-0.7,0.4c0,0,0,0,0,0c-1.5,0.7-2.9,1.6-4.4,2.5l4.9,1.6
			c-0.9,0.4-8.6,2.8-14,4.1c-0.9,0.3-1.7,0.7-2.6,0.8l0,0c0,0,0,0,0,0c0-0.1,0.3-0.2,0.4-0.3c-1,0.2-1.8,0.4-2.4,0.4
			c-0.3,0-0.5,0-0.6-0.1c-0.6-0.7,10.8-16,10.8-16v0l0,0l-0.1,4.7c0,0,11.8-8.8,25.2-13.1c0.2-0.1,0.4-0.1,0.6-0.2
			c0.1,0,0.2-0.1,0.2-0.1c1.3-0.5,2.7-1,4.1-1.3c0.3,0,0.6-0.1,0.9-0.3c0.6-0.3,2.7-0.6,3.1-0.6c5.7-1.3,11.5-2,17.2-2
			c0.6,0,1.2-0.1,1.9-0.1c0.2,0,0.5,0,0.7,0c0.1-0.1,0.3-0.1,0.4-0.1c0.1,0,0.3,0,0.5,0.1c0,0,0,0,0,0c0.3,0,0.5,0,0.8,0.1
			c0.2-0.1,0.3-0.2,0.4-0.2c0,0,0,0,0,0l0,0c0.3,0,0.5,0,0.8,0c0.8,0.2,1.7,0.4,2.5,0.5c0.4,0.1,0.8,0.1,1.1,0.1
			c1.4,0.2,2.8,0.4,4.2,0.9c0.3,0.1,0.6,0.2,1,0.2c0.7,0,1.3,0.2,1.9,0.5c0.3,0.2,0.7,0.3,1,0.5c7.6,2.5,14.7,6.9,20.8,13.8
			c0,0,0.4,0.5,1.1,1.4c0.1,0.1,0.2,0.3,0.4,0.6c0,0,0.1,0.1,0.1,0.1c0,0,0,0.1,0.1,0.1c0,0.1,0.1,0.2,0.2,0.2c0,0,0,0,0,0
			c1.8,2.7,5.9,10.3,5.5,20C145,41.9,145,43.2,144.8,44.9z M135.3,18.8L135.3,18.8c1.8,1.9,3.5,4.1,4.9,6.6c0.3,0.6,0.7,1.1,1,1.7
			c-0.4-1.4-1-2.7-1.6-4c-0.9-1.7-1.9-3.3-3.1-4.7l0,0c-1.8-2.2-3.6-3.9-5-5c-2.2-1.8-5.4-3.8-8.6-5c-0.1,0,6.8,4.5,10,7.8
			C133.7,17.1,134.5,18,135.3,18.8L135.3,18.8L135.3,18.8z M67,9.8c-3,1.3-9.4,4.6-11.2,6.3c2-1.1,8.8-4.6,11.5-5.7
			C73.7,7.8,78,6.3,80.2,5.6C76.3,6.2,70.7,8.2,67,9.8z"/>
	</g>
	<g>
		<g>
			<path class="st2" d="M9.9,58.3c2.5-4.3,4.5-7.4,6.2-9.4c1.6-2,3.4-3.6,5.3-4.9c1.9-1.3,4.1-2.3,6.4-2.9c2.3-0.6,5-0.9,7.9-0.9h10
				l-3.4,5.8H31.7c-2.8,0-5.3,0.6-7.3,1.9c-2,1.3-3.9,3.4-5.6,6.2l18.7,0L34.2,60H15.5L7.6,73.8H1L9.9,58.3z"/>
			<path class="st2" d="M50.8,40.2H65c2.4,0,4.2,0.1,5.5,0.4c1.3,0.3,2.2,0.7,2.7,1.3c0.8,1,1.2,2.2,1,3.8c-0.2,1.6-0.9,3.4-2.1,5.4
				c-1.2,2-2.5,3.7-3.9,5.2c-1.4,1.4-3,2.6-4.8,3.6c-1.5,0.8-2.9,1.3-4.5,1.7c-1.5,0.3-3.6,0.5-6.3,0.5h-7.9L38,73.8h-6.5L50.8,40.2
				z M61.5,46.2h-7.6l-5.7,9.9h8c2,0,3.7-0.4,5.1-1.2c1.4-0.8,2.6-2.1,3.6-3.7c1-1.8,1.3-3.1,0.8-3.8C65.1,46.6,63.8,46.2,61.5,46.2
				z"/>
			<path class="st2" d="M106.6,46.2H90.5c-1.7,0-3.2,0.3-4.4,1c-1.2,0.7-2.3,1.8-3.1,3.3c-0.7,1.2-0.9,2.1-0.5,2.7
				c0.3,0.6,1.2,0.9,2.6,0.9h8.6c3.6,0,5.7,0.7,6.4,2.2c0.7,1.5,0,3.9-1.9,7.3c-2,3.5-4.3,6-7,7.6c-2.7,1.6-5.9,2.4-9.6,2.4H64
				l3.5-6h16.4c1.9,0,3.3-0.3,4.4-0.9c1.1-0.6,2-1.6,2.8-2.9c0.8-1.4,1-2.4,0.7-3c-0.4-0.6-1.4-0.9-3.1-0.9h-7.7
				c-3.6,0-5.7-0.8-6.5-2.3c-0.8-1.5-0.2-4,1.7-7.3c2.1-3.6,4.4-6.2,7.1-7.8c2.7-1.6,5.9-2.5,9.7-2.5h17.1L106.6,46.2z"/>
		</g>
	</g>
</g>
</svg>
